<svg xmlns="http://www.w3.org/2000/svg" viewBox="0 0 116 14" aria-label="Trek" role="img"> <path fill="#000" fill-rule="evenodd" clip-rule="evenodd" d="m95.362 0-4.965 13.72h-9.672L85.69 0h9.67ZM115.2 0l-11.118 6.464 6.422 7.256H99.34l-5.742-7.333L103.87 0h11.331ZM83.57 0l-.951 2.626H67.273l-1.04 2.858h15.347l-.95 2.625H65.294l-.628 1.73c-.227.63.175 1.267 1.022 1.267H79.55l-.948 2.614H58.767c-.801 0-1.277-.364-1.679-.813a474.501 474.501 0 0 1-1.484-1.679c-.454-.516-.413-1.201-.197-1.804L58.809 0h24.76ZM54.183 0c1.376 0 2.162.82 1.677 2.19-.295.836-1.2 3.38-1.607 4.408-.36.902-1.133 1.636-2.51 1.636H51.022l-.814-.002h-.744l-.156-.001-.49-.001 4.877 5.49H42.846l-5.73-7.324.969-.001h.228l1.056-.001h.29l1.193-.002h1.662l1.19-.002c.82 0 1.392-.433 1.628-1.005.175-.423.417-1.095.59-1.66.171-.553-.128-1.1-.88-1.1h-7.03L34.02 13.72h-9.422L29.569 0h24.614ZM27.851 0 26.9 2.626h-8.488L14.395 13.72H5.264L9.277 2.626H0L.95 0h26.901Z"/> </svg>

